<?xml version="1.0" encoding="UTF-8"?>
<svg id="a" xmlns="http://www.w3.org/2000/svg" viewBox="0 0 512 512">
  <g id="b">
    <g id="c">
      <g fill="#d47e2f">
        <path d="M249.79,53.91c.64.61,14,4.32,16.78,5.46,6.54,2.7,13.16,5.6,19.43,8.86,7.32,3.8,26.91,18.74,31.66,20.08,8.66,2.45,21.9,1.13,31.57,2.39,20.91,2.71,68.14,19.27,79.38,37.85,20.02,33.11-32.42,91.27-54.79,113.63-5.25,5.25-40.11,33.57-40.11,36.27,0,.43,4.99,4.89,5.96,6.15,1.98,2.57,10.13,16.02,10.99,16.49,2.25,1.23,10.04,0,13.33.42,116.98,15.11,129.51,150.09,17.39,194.41-31.9,12.61-130.22,27.38-156.45,2.87-25.94-24.25,5.51-49.95,32.33-50.98,43.79-1.68,125.2,9.44,146.11-43.08,13.58-34.1-17.17-49.2-45.41-54.72-4.83,46.25-50.28,72.09-92.59,76.79-4.11.46-11.34-.95-14.75.61-.92.42-7.79,11.02-10.69,13.56-26.8,23.52-81.92,6.97-63.88-35.17-20.88,17.09-70.91,3.31-62.67-29.12,3.19-12.54,15.88-17.84,20.42-30.51,2.22-6.2,5.29-24.64,3.47-30.36-.44-1.39-21.23-11.65-25.34-14.46-39.06-26.69-60.58-59.63-58.75-108.57C55.56,128.2,124.62,34.39,181.95,6.26c30.92-15.17,47.86-1.45,60.51,27.08,1.51,3.4,5.97,19.27,7.32,20.57ZM124.14,97.99c-72.55,2.2-84.47,175.91-14.68,177.31,40.86.82,60.79-60.3,62.5-93.07,1.5-28.58-10.24-85.37-47.83-84.23ZM212.12,158.1c-36.84,35.4-42.07,105.25-.89,139.32,49.38,40.86,108.25-7.22,117.36-60.45,12.38-72.34-56.27-136.74-116.47-78.88ZM423.43,147.88c-5.28-5.22-58.4,16.52-61.01,24.21-.24.72,1.92,12.57,1.97,15.02.43,20.27-3.65,36.71-8.06,56.17,19.03-15.58,36-32.9,49.64-53.44,4.72-7.1,11.62-17.33,14.38-25.24.8-2.29,4.05-15.78,3.09-16.73Z"/>
        <path d="M236.31,175.83c19.36-17.07,45.17-16.46,61.32,4.46,19.73,25.55,12.29,70.87-12.09,91.26-54.87,45.89-102.17-49.07-49.24-95.72Z"/>
        <path d="M93.05,235.71c-37.36-34.08,2.91-132.29,44.92-100.3,42.18,32.11-2.38,139.11-44.92,100.3Z"/>
      </g>
    </g>
  </g>
</svg>
